<?xml version="1.0" encoding="utf-8" standalone="no"?>
<!DOCTYPE svg PUBLIC "-//W3C//DTD SVG 1.1//EN"
  "http://www.w3.org/Graphics/SVG/1.1/DTD/svg11.dtd">
<svg xmlns:xlink="http://www.w3.org/1999/xlink" width="460.8pt" height="345.6pt" viewBox="0 0 460.8 345.6" xmlns="http://www.w3.org/2000/svg" version="1.1">
 <metadata>
  <rdf:RDF xmlns:dc="http://purl.org/dc/elements/1.1/" xmlns:cc="http://creativecommons.org/ns#" xmlns:rdf="http://www.w3.org/1999/02/22-rdf-syntax-ns#">
   <cc:Work>
    <dc:type rdf:resource="http://purl.org/dc/dcmitype/StillImage"/>
    <dc:date>2022-04-29T23:01:38.775035</dc:date>
    <dc:format>image/svg+xml</dc:format>
    <dc:creator>
     <cc:Agent>
      <dc:title>Matplotlib v3.5.0, https://matplotlib.org/</dc:title>
     </cc:Agent>
    </dc:creator>
   </cc:Work>
  </rdf:RDF>
 </metadata>
 <defs>
  <style type="text/css">*{stroke-linejoin: round; stroke-linecap: butt}</style>
 </defs>
 <g id="figure_1">
  <g id="patch_1">
   <path d="M 0 345.6 
L 460.8 345.6 
L 460.8 0 
L 0 0 
z
" style="fill: #ffffff"/>
  </g>
  <g id="axes_1">
   <g id="patch_2">
    <path d="M 57.6 307.584 
L 414.72 307.584 
L 414.72 41.472 
L 57.6 41.472 
z
" style="fill: #ffffff"/>
   </g>
   <g id="PathCollection_1">
    <defs>
     <path id="m3c9ac0d32b" d="M 0 3 
C 0.795609 3 1.55874 2.683901 2.12132 2.12132 
C 2.683901 1.55874 3 0.795609 3 0 
C 3 -0.795609 2.683901 -1.55874 2.12132 -2.12132 
C 1.55874 -2.683901 0.795609 -3 0 -3 
C -0.795609 -3 -1.55874 -2.683901 -2.12132 -2.12132 
C -2.683901 -1.55874 -3 -0.795609 -3 0 
C -3 0.795609 -2.683901 1.55874 -2.12132 2.12132 
C -1.55874 2.683901 -0.795609 3 0 3 
z
" style="stroke: #0000ff; stroke-opacity: 0.3"/>
    </defs>
    <g clip-path="url(#p0be08ed878)">
     <use xlink:href="#m3c9ac0d32b" x="84.820133" y="152.250394" style="fill: #0000ff; fill-opacity: 0.3; stroke: #0000ff; stroke-opacity: 0.3"/>
     <use xlink:href="#m3c9ac0d32b" x="314.242243" y="155.944723" style="fill: #0000ff; fill-opacity: 0.3; stroke: #0000ff; stroke-opacity: 0.3"/>
     <use xlink:href="#m3c9ac0d32b" x="113.122355" y="183.888311" style="fill: #0000ff; fill-opacity: 0.3; stroke: #0000ff; stroke-opacity: 0.3"/>
     <use xlink:href="#m3c9ac0d32b" x="145.825771" y="125.040828" style="fill: #0000ff; fill-opacity: 0.3; stroke: #0000ff; stroke-opacity: 0.3"/>
     <use xlink:href="#m3c9ac0d32b" x="145.82506" y="125.038632" style="fill: #0000ff; fill-opacity: 0.3; stroke: #0000ff; stroke-opacity: 0.3"/>
     <use xlink:href="#m3c9ac0d32b" x="278.263087" y="171.763079" style="fill: #0000ff; fill-opacity: 0.3; stroke: #0000ff; stroke-opacity: 0.3"/>
     <use xlink:href="#m3c9ac0d32b" x="222.131236" y="126.677658" style="fill: #0000ff; fill-opacity: 0.3; stroke: #0000ff; stroke-opacity: 0.3"/>
     <use xlink:href="#m3c9ac0d32b" x="218.499303" y="295.426385" style="fill: #0000ff; fill-opacity: 0.3; stroke: #0000ff; stroke-opacity: 0.3"/>
     <use xlink:href="#m3c9ac0d32b" x="76.343769" y="158.206356" style="fill: #0000ff; fill-opacity: 0.3; stroke: #0000ff; stroke-opacity: 0.3"/>
     <use xlink:href="#m3c9ac0d32b" x="321.310269" y="182.912164" style="fill: #0000ff; fill-opacity: 0.3; stroke: #0000ff; stroke-opacity: 0.3"/>
     <use xlink:href="#m3c9ac0d32b" x="223.347769" y="131.767828" style="fill: #0000ff; fill-opacity: 0.3; stroke: #0000ff; stroke-opacity: 0.3"/>
     <use xlink:href="#m3c9ac0d32b" x="87.556781" y="135.491882" style="fill: #0000ff; fill-opacity: 0.3; stroke: #0000ff; stroke-opacity: 0.3"/>
     <use xlink:href="#m3c9ac0d32b" x="138.536196" y="197.929466" style="fill: #0000ff; fill-opacity: 0.3; stroke: #0000ff; stroke-opacity: 0.3"/>
     <use xlink:href="#m3c9ac0d32b" x="262.324661" y="218.377206" style="fill: #0000ff; fill-opacity: 0.3; stroke: #0000ff; stroke-opacity: 0.3"/>
     <use xlink:href="#m3c9ac0d32b" x="238.42461" y="161.090799" style="fill: #0000ff; fill-opacity: 0.3; stroke: #0000ff; stroke-opacity: 0.3"/>
     <use xlink:href="#m3c9ac0d32b" x="233.442236" y="222.067327" style="fill: #0000ff; fill-opacity: 0.3; stroke: #0000ff; stroke-opacity: 0.3"/>
     <use xlink:href="#m3c9ac0d32b" x="208.322461" y="196.31043" style="fill: #0000ff; fill-opacity: 0.3; stroke: #0000ff; stroke-opacity: 0.3"/>
     <use xlink:href="#m3c9ac0d32b" x="83.287398" y="172.566021" style="fill: #0000ff; fill-opacity: 0.3; stroke: #0000ff; stroke-opacity: 0.3"/>
     <use xlink:href="#m3c9ac0d32b" x="137.099271" y="118.37004" style="fill: #0000ff; fill-opacity: 0.3; stroke: #0000ff; stroke-opacity: 0.3"/>
     <use xlink:href="#m3c9ac0d32b" x="233.41103" y="211.119103" style="fill: #0000ff; fill-opacity: 0.3; stroke: #0000ff; stroke-opacity: 0.3"/>
     <use xlink:href="#m3c9ac0d32b" x="99.357328" y="136.564462" style="fill: #0000ff; fill-opacity: 0.3; stroke: #0000ff; stroke-opacity: 0.3"/>
     <use xlink:href="#m3c9ac0d32b" x="232.286036" y="225.999241" style="fill: #0000ff; fill-opacity: 0.3; stroke: #0000ff; stroke-opacity: 0.3"/>
     <use xlink:href="#m3c9ac0d32b" x="301.545833" y="118.619049" style="fill: #0000ff; fill-opacity: 0.3; stroke: #0000ff; stroke-opacity: 0.3"/>
     <use xlink:href="#m3c9ac0d32b" x="325.806709" y="100.038318" style="fill: #0000ff; fill-opacity: 0.3; stroke: #0000ff; stroke-opacity: 0.3"/>
     <use xlink:href="#m3c9ac0d32b" x="208.844175" y="194.134788" style="fill: #0000ff; fill-opacity: 0.3; stroke: #0000ff; stroke-opacity: 0.3"/>
     <use xlink:href="#m3c9ac0d32b" x="310.288849" y="126.619885" style="fill: #0000ff; fill-opacity: 0.3; stroke: #0000ff; stroke-opacity: 0.3"/>
     <use xlink:href="#m3c9ac0d32b" x="136.284687" y="113.861559" style="fill: #0000ff; fill-opacity: 0.3; stroke: #0000ff; stroke-opacity: 0.3"/>
     <use xlink:href="#m3c9ac0d32b" x="311.360695" y="116.541672" style="fill: #0000ff; fill-opacity: 0.3; stroke: #0000ff; stroke-opacity: 0.3"/>
     <use xlink:href="#m3c9ac0d32b" x="322.85109" y="103.316065" style="fill: #0000ff; fill-opacity: 0.3; stroke: #0000ff; stroke-opacity: 0.3"/>
     <use xlink:href="#m3c9ac0d32b" x="230.258246" y="220.209505" style="fill: #0000ff; fill-opacity: 0.3; stroke: #0000ff; stroke-opacity: 0.3"/>
     <use xlink:href="#m3c9ac0d32b" x="322.406" y="105.173874" style="fill: #0000ff; fill-opacity: 0.3; stroke: #0000ff; stroke-opacity: 0.3"/>
     <use xlink:href="#m3c9ac0d32b" x="313.384371" y="118.329503" style="fill: #0000ff; fill-opacity: 0.3; stroke: #0000ff; stroke-opacity: 0.3"/>
     <use xlink:href="#m3c9ac0d32b" x="252.72439" y="219.075203" style="fill: #0000ff; fill-opacity: 0.3; stroke: #0000ff; stroke-opacity: 0.3"/>
     <use xlink:href="#m3c9ac0d32b" x="321.521724" y="102.731957" style="fill: #0000ff; fill-opacity: 0.3; stroke: #0000ff; stroke-opacity: 0.3"/>
     <use xlink:href="#m3c9ac0d32b" x="261.963152" y="218.552852" style="fill: #0000ff; fill-opacity: 0.3; stroke: #0000ff; stroke-opacity: 0.3"/>
     <use xlink:href="#m3c9ac0d32b" x="321.648012" y="110.612306" style="fill: #0000ff; fill-opacity: 0.3; stroke: #0000ff; stroke-opacity: 0.3"/>
     <use xlink:href="#m3c9ac0d32b" x="110.591053" y="182.649395" style="fill: #0000ff; fill-opacity: 0.3; stroke: #0000ff; stroke-opacity: 0.3"/>
     <use xlink:href="#m3c9ac0d32b" x="105.110154" y="176.734736" style="fill: #0000ff; fill-opacity: 0.3; stroke: #0000ff; stroke-opacity: 0.3"/>
    </g>
   </g>
   <g id="PathCollection_2">
    <defs>
     <path id="m9357756b08" d="M 0 3 
C 0.795609 3 1.55874 2.683901 2.12132 2.12132 
C 2.683901 1.55874 3 0.795609 3 0 
C 3 -0.795609 2.683901 -1.55874 2.12132 -2.12132 
C 1.55874 -2.683901 0.795609 -3 0 -3 
C -0.795609 -3 -1.55874 -2.683901 -2.12132 -2.12132 
C -2.683901 -1.55874 -3 -0.795609 -3 0 
C -3 0.795609 -2.683901 1.55874 -2.12132 2.12132 
C -1.55874 2.683901 -0.795609 3 0 3 
z
" style="stroke: #bfbf00; stroke-opacity: 0.3"/>
    </defs>
    <g clip-path="url(#p0be08ed878)">
     <use xlink:href="#m9357756b08" x="210.992598" y="197.946846" style="fill: #bfbf00; fill-opacity: 0.3; stroke: #bfbf00; stroke-opacity: 0.3"/>
     <use xlink:href="#m9357756b08" x="158.419199" y="247.20188" style="fill: #bfbf00; fill-opacity: 0.3; stroke: #bfbf00; stroke-opacity: 0.3"/>
     <use xlink:href="#m9357756b08" x="93.444757" y="147.606224" style="fill: #bfbf00; fill-opacity: 0.3; stroke: #bfbf00; stroke-opacity: 0.3"/>
     <use xlink:href="#m9357756b08" x="225.298411" y="292.600885" style="fill: #bfbf00; fill-opacity: 0.3; stroke: #bfbf00; stroke-opacity: 0.3"/>
     <use xlink:href="#m9357756b08" x="310.27272" y="126.600038" style="fill: #bfbf00; fill-opacity: 0.3; stroke: #bfbf00; stroke-opacity: 0.3"/>
     <use xlink:href="#m9357756b08" x="108.284714" y="176.966592" style="fill: #bfbf00; fill-opacity: 0.3; stroke: #bfbf00; stroke-opacity: 0.3"/>
     <use xlink:href="#m9357756b08" x="319.765441" y="92.044268" style="fill: #bfbf00; fill-opacity: 0.3; stroke: #bfbf00; stroke-opacity: 0.3"/>
     <use xlink:href="#m9357756b08" x="73.909897" y="128.863138" style="fill: #bfbf00; fill-opacity: 0.3; stroke: #bfbf00; stroke-opacity: 0.3"/>
     <use xlink:href="#m9357756b08" x="108.528558" y="191.151419" style="fill: #bfbf00; fill-opacity: 0.3; stroke: #bfbf00; stroke-opacity: 0.3"/>
     <use xlink:href="#m9357756b08" x="278.93189" y="190.094674" style="fill: #bfbf00; fill-opacity: 0.3; stroke: #bfbf00; stroke-opacity: 0.3"/>
     <use xlink:href="#m9357756b08" x="82.411676" y="120.270584" style="fill: #bfbf00; fill-opacity: 0.3; stroke: #bfbf00; stroke-opacity: 0.3"/>
     <use xlink:href="#m9357756b08" x="280.10032" y="190.015504" style="fill: #bfbf00; fill-opacity: 0.3; stroke: #bfbf00; stroke-opacity: 0.3"/>
     <use xlink:href="#m9357756b08" x="163.226275" y="166.033837" style="fill: #bfbf00; fill-opacity: 0.3; stroke: #bfbf00; stroke-opacity: 0.3"/>
     <use xlink:href="#m9357756b08" x="158.329673" y="183.682766" style="fill: #bfbf00; fill-opacity: 0.3; stroke: #bfbf00; stroke-opacity: 0.3"/>
     <use xlink:href="#m9357756b08" x="160.342238" y="179.384027" style="fill: #bfbf00; fill-opacity: 0.3; stroke: #bfbf00; stroke-opacity: 0.3"/>
     <use xlink:href="#m9357756b08" x="125.687299" y="159.858599" style="fill: #bfbf00; fill-opacity: 0.3; stroke: #bfbf00; stroke-opacity: 0.3"/>
     <use xlink:href="#m9357756b08" x="222.664287" y="295.488" style="fill: #bfbf00; fill-opacity: 0.3; stroke: #bfbf00; stroke-opacity: 0.3"/>
     <use xlink:href="#m9357756b08" x="145.076784" y="118.457035" style="fill: #bfbf00; fill-opacity: 0.3; stroke: #bfbf00; stroke-opacity: 0.3"/>
     <use xlink:href="#m9357756b08" x="95.510841" y="120.586742" style="fill: #bfbf00; fill-opacity: 0.3; stroke: #bfbf00; stroke-opacity: 0.3"/>
     <use xlink:href="#m9357756b08" x="236.160771" y="172.349023" style="fill: #bfbf00; fill-opacity: 0.3; stroke: #bfbf00; stroke-opacity: 0.3"/>
     <use xlink:href="#m9357756b08" x="97.393185" y="130.049275" style="fill: #bfbf00; fill-opacity: 0.3; stroke: #bfbf00; stroke-opacity: 0.3"/>
     <use xlink:href="#m9357756b08" x="287.863861" y="192.012236" style="fill: #bfbf00; fill-opacity: 0.3; stroke: #bfbf00; stroke-opacity: 0.3"/>
     <use xlink:href="#m9357756b08" x="278.971566" y="191.752354" style="fill: #bfbf00; fill-opacity: 0.3; stroke: #bfbf00; stroke-opacity: 0.3"/>
     <use xlink:href="#m9357756b08" x="81.707654" y="137.332985" style="fill: #bfbf00; fill-opacity: 0.3; stroke: #bfbf00; stroke-opacity: 0.3"/>
     <use xlink:href="#m9357756b08" x="233.815824" y="216.491895" style="fill: #bfbf00; fill-opacity: 0.3; stroke: #bfbf00; stroke-opacity: 0.3"/>
     <use xlink:href="#m9357756b08" x="236.910184" y="224.016685" style="fill: #bfbf00; fill-opacity: 0.3; stroke: #bfbf00; stroke-opacity: 0.3"/>
     <use xlink:href="#m9357756b08" x="79.255632" y="131.950946" style="fill: #bfbf00; fill-opacity: 0.3; stroke: #bfbf00; stroke-opacity: 0.3"/>
     <use xlink:href="#m9357756b08" x="236.161369" y="172.348105" style="fill: #bfbf00; fill-opacity: 0.3; stroke: #bfbf00; stroke-opacity: 0.3"/>
     <use xlink:href="#m9357756b08" x="210.714424" y="189.066779" style="fill: #bfbf00; fill-opacity: 0.3; stroke: #bfbf00; stroke-opacity: 0.3"/>
     <use xlink:href="#m9357756b08" x="90.310129" y="132.460232" style="fill: #bfbf00; fill-opacity: 0.3; stroke: #bfbf00; stroke-opacity: 0.3"/>
     <use xlink:href="#m9357756b08" x="103.308788" y="123.089035" style="fill: #bfbf00; fill-opacity: 0.3; stroke: #bfbf00; stroke-opacity: 0.3"/>
     <use xlink:href="#m9357756b08" x="227.997869" y="286.026927" style="fill: #bfbf00; fill-opacity: 0.3; stroke: #bfbf00; stroke-opacity: 0.3"/>
     <use xlink:href="#m9357756b08" x="238.106474" y="221.056901" style="fill: #bfbf00; fill-opacity: 0.3; stroke: #bfbf00; stroke-opacity: 0.3"/>
     <use xlink:href="#m9357756b08" x="104.183176" y="167.840147" style="fill: #bfbf00; fill-opacity: 0.3; stroke: #bfbf00; stroke-opacity: 0.3"/>
     <use xlink:href="#m9357756b08" x="73.832727" y="136.164768" style="fill: #bfbf00; fill-opacity: 0.3; stroke: #bfbf00; stroke-opacity: 0.3"/>
     <use xlink:href="#m9357756b08" x="92.7647" y="127.309941" style="fill: #bfbf00; fill-opacity: 0.3; stroke: #bfbf00; stroke-opacity: 0.3"/>
     <use xlink:href="#m9357756b08" x="234.87293" y="225.403713" style="fill: #bfbf00; fill-opacity: 0.3; stroke: #bfbf00; stroke-opacity: 0.3"/>
     <use xlink:href="#m9357756b08" x="109.531622" y="180.895692" style="fill: #bfbf00; fill-opacity: 0.3; stroke: #bfbf00; stroke-opacity: 0.3"/>
     <use xlink:href="#m9357756b08" x="158.366493" y="247.177081" style="fill: #bfbf00; fill-opacity: 0.3; stroke: #bfbf00; stroke-opacity: 0.3"/>
     <use xlink:href="#m9357756b08" x="158.360817" y="247.182171" style="fill: #bfbf00; fill-opacity: 0.3; stroke: #bfbf00; stroke-opacity: 0.3"/>
    </g>
   </g>
   <g id="PathCollection_3">
    <defs>
     <path id="m07e045b19c" d="M 0 3 
C 0.795609 3 1.55874 2.683901 2.12132 2.12132 
C 2.683901 1.55874 3 0.795609 3 0 
C 3 -0.795609 2.683901 -1.55874 2.12132 -2.12132 
C 1.55874 -2.683901 0.795609 -3 0 -3 
C -0.795609 -3 -1.55874 -2.683901 -2.12132 -2.12132 
C -2.683901 -1.55874 -3 -0.795609 -3 0 
C -3 0.795609 -2.683901 1.55874 -2.12132 2.12132 
C -1.55874 2.683901 -0.795609 3 0 3 
z
" style="stroke: #ff0000; stroke-opacity: 0.3"/>
    </defs>
    <g clip-path="url(#p0be08ed878)">
     <use xlink:href="#m07e045b19c" x="91.722393" y="115.028478" style="fill: #ff0000; fill-opacity: 0.3; stroke: #ff0000; stroke-opacity: 0.3"/>
     <use xlink:href="#m07e045b19c" x="352.123013" y="159.514195" style="fill: #ff0000; fill-opacity: 0.3; stroke: #ff0000; stroke-opacity: 0.3"/>
     <use xlink:href="#m07e045b19c" x="131.716372" y="182.484661" style="fill: #ff0000; fill-opacity: 0.3; stroke: #ff0000; stroke-opacity: 0.3"/>
     <use xlink:href="#m07e045b19c" x="82.796984" y="144.812675" style="fill: #ff0000; fill-opacity: 0.3; stroke: #ff0000; stroke-opacity: 0.3"/>
     <use xlink:href="#m07e045b19c" x="378.902973" y="153.953557" style="fill: #ff0000; fill-opacity: 0.3; stroke: #ff0000; stroke-opacity: 0.3"/>
     <use xlink:href="#m07e045b19c" x="335.180488" y="136.412217" style="fill: #ff0000; fill-opacity: 0.3; stroke: #ff0000; stroke-opacity: 0.3"/>
     <use xlink:href="#m07e045b19c" x="242.693157" y="157.022019" style="fill: #ff0000; fill-opacity: 0.3; stroke: #ff0000; stroke-opacity: 0.3"/>
     <use xlink:href="#m07e045b19c" x="113.79571" y="178.832792" style="fill: #ff0000; fill-opacity: 0.3; stroke: #ff0000; stroke-opacity: 0.3"/>
     <use xlink:href="#m07e045b19c" x="337.353875" y="135.120254" style="fill: #ff0000; fill-opacity: 0.3; stroke: #ff0000; stroke-opacity: 0.3"/>
     <use xlink:href="#m07e045b19c" x="384.285506" y="179.974673" style="fill: #ff0000; fill-opacity: 0.3; stroke: #ff0000; stroke-opacity: 0.3"/>
     <use xlink:href="#m07e045b19c" x="382.575418" y="178.284192" style="fill: #ff0000; fill-opacity: 0.3; stroke: #ff0000; stroke-opacity: 0.3"/>
     <use xlink:href="#m07e045b19c" x="265.613176" y="87.042496" style="fill: #ff0000; fill-opacity: 0.3; stroke: #ff0000; stroke-opacity: 0.3"/>
     <use xlink:href="#m07e045b19c" x="222.879203" y="284.752668" style="fill: #ff0000; fill-opacity: 0.3; stroke: #ff0000; stroke-opacity: 0.3"/>
     <use xlink:href="#m07e045b19c" x="155.507131" y="200.765463" style="fill: #ff0000; fill-opacity: 0.3; stroke: #ff0000; stroke-opacity: 0.3"/>
     <use xlink:href="#m07e045b19c" x="148.670667" y="197.930373" style="fill: #ff0000; fill-opacity: 0.3; stroke: #ff0000; stroke-opacity: 0.3"/>
     <use xlink:href="#m07e045b19c" x="136.948117" y="190.603861" style="fill: #ff0000; fill-opacity: 0.3; stroke: #ff0000; stroke-opacity: 0.3"/>
     <use xlink:href="#m07e045b19c" x="148.302813" y="199.85272" style="fill: #ff0000; fill-opacity: 0.3; stroke: #ff0000; stroke-opacity: 0.3"/>
     <use xlink:href="#m07e045b19c" x="292.313594" y="131.877212" style="fill: #ff0000; fill-opacity: 0.3; stroke: #ff0000; stroke-opacity: 0.3"/>
     <use xlink:href="#m07e045b19c" x="293.938748" y="72.589497" style="fill: #ff0000; fill-opacity: 0.3; stroke: #ff0000; stroke-opacity: 0.3"/>
     <use xlink:href="#m07e045b19c" x="173.654257" y="222.444238" style="fill: #ff0000; fill-opacity: 0.3; stroke: #ff0000; stroke-opacity: 0.3"/>
     <use xlink:href="#m07e045b19c" x="393.538872" y="198.209507" style="fill: #ff0000; fill-opacity: 0.3; stroke: #ff0000; stroke-opacity: 0.3"/>
     <use xlink:href="#m07e045b19c" x="295.982987" y="127.852627" style="fill: #ff0000; fill-opacity: 0.3; stroke: #ff0000; stroke-opacity: 0.3"/>
     <use xlink:href="#m07e045b19c" x="391.139322" y="179.964192" style="fill: #ff0000; fill-opacity: 0.3; stroke: #ff0000; stroke-opacity: 0.3"/>
     <use xlink:href="#m07e045b19c" x="378.076252" y="157.858059" style="fill: #ff0000; fill-opacity: 0.3; stroke: #ff0000; stroke-opacity: 0.3"/>
     <use xlink:href="#m07e045b19c" x="371.697776" y="174.861826" style="fill: #ff0000; fill-opacity: 0.3; stroke: #ff0000; stroke-opacity: 0.3"/>
     <use xlink:href="#m07e045b19c" x="377.381562" y="173.706154" style="fill: #ff0000; fill-opacity: 0.3; stroke: #ff0000; stroke-opacity: 0.3"/>
     <use xlink:href="#m07e045b19c" x="158.079801" y="155.227828" style="fill: #ff0000; fill-opacity: 0.3; stroke: #ff0000; stroke-opacity: 0.3"/>
     <use xlink:href="#m07e045b19c" x="379.814848" y="143.613096" style="fill: #ff0000; fill-opacity: 0.3; stroke: #ff0000; stroke-opacity: 0.3"/>
     <use xlink:href="#m07e045b19c" x="366.096389" y="163.168849" style="fill: #ff0000; fill-opacity: 0.3; stroke: #ff0000; stroke-opacity: 0.3"/>
     <use xlink:href="#m07e045b19c" x="225.604642" y="153.077412" style="fill: #ff0000; fill-opacity: 0.3; stroke: #ff0000; stroke-opacity: 0.3"/>
     <use xlink:href="#m07e045b19c" x="392.985498" y="167.55552" style="fill: #ff0000; fill-opacity: 0.3; stroke: #ff0000; stroke-opacity: 0.3"/>
     <use xlink:href="#m07e045b19c" x="398.235577" y="164.12854" style="fill: #ff0000; fill-opacity: 0.3; stroke: #ff0000; stroke-opacity: 0.3"/>
     <use xlink:href="#m07e045b19c" x="366.162104" y="158.580424" style="fill: #ff0000; fill-opacity: 0.3; stroke: #ff0000; stroke-opacity: 0.3"/>
     <use xlink:href="#m07e045b19c" x="227.100012" y="289.389254" style="fill: #ff0000; fill-opacity: 0.3; stroke: #ff0000; stroke-opacity: 0.3"/>
     <use xlink:href="#m07e045b19c" x="309.454357" y="154.839388" style="fill: #ff0000; fill-opacity: 0.3; stroke: #ff0000; stroke-opacity: 0.3"/>
     <use xlink:href="#m07e045b19c" x="103.685673" y="158.676042" style="fill: #ff0000; fill-opacity: 0.3; stroke: #ff0000; stroke-opacity: 0.3"/>
     <use xlink:href="#m07e045b19c" x="368.242998" y="162.644724" style="fill: #ff0000; fill-opacity: 0.3; stroke: #ff0000; stroke-opacity: 0.3"/>
     <use xlink:href="#m07e045b19c" x="390.022921" y="181.650986" style="fill: #ff0000; fill-opacity: 0.3; stroke: #ff0000; stroke-opacity: 0.3"/>
     <use xlink:href="#m07e045b19c" x="272.217058" y="90.748236" style="fill: #ff0000; fill-opacity: 0.3; stroke: #ff0000; stroke-opacity: 0.3"/>
     <use xlink:href="#m07e045b19c" x="145.835446" y="148.85992" style="fill: #ff0000; fill-opacity: 0.3; stroke: #ff0000; stroke-opacity: 0.3"/>
     <use xlink:href="#m07e045b19c" x="225.292518" y="278.270978" style="fill: #ff0000; fill-opacity: 0.3; stroke: #ff0000; stroke-opacity: 0.3"/>
     <use xlink:href="#m07e045b19c" x="353.125907" y="154.045494" style="fill: #ff0000; fill-opacity: 0.3; stroke: #ff0000; stroke-opacity: 0.3"/>
     <use xlink:href="#m07e045b19c" x="398.487273" y="186.462262" style="fill: #ff0000; fill-opacity: 0.3; stroke: #ff0000; stroke-opacity: 0.3"/>
     <use xlink:href="#m07e045b19c" x="220.622805" y="285.975125" style="fill: #ff0000; fill-opacity: 0.3; stroke: #ff0000; stroke-opacity: 0.3"/>
     <use xlink:href="#m07e045b19c" x="300.612857" y="53.568" style="fill: #ff0000; fill-opacity: 0.3; stroke: #ff0000; stroke-opacity: 0.3"/>
     <use xlink:href="#m07e045b19c" x="143.99313" y="161.194967" style="fill: #ff0000; fill-opacity: 0.3; stroke: #ff0000; stroke-opacity: 0.3"/>
     <use xlink:href="#m07e045b19c" x="372.783488" y="168.516923" style="fill: #ff0000; fill-opacity: 0.3; stroke: #ff0000; stroke-opacity: 0.3"/>
     <use xlink:href="#m07e045b19c" x="293.152795" y="76.426931" style="fill: #ff0000; fill-opacity: 0.3; stroke: #ff0000; stroke-opacity: 0.3"/>
     <use xlink:href="#m07e045b19c" x="120.317078" y="200.471925" style="fill: #ff0000; fill-opacity: 0.3; stroke: #ff0000; stroke-opacity: 0.3"/>
     <use xlink:href="#m07e045b19c" x="89.688902" y="139.893955" style="fill: #ff0000; fill-opacity: 0.3; stroke: #ff0000; stroke-opacity: 0.3"/>
    </g>
   </g>
   <g id="matplotlib.axis_1">
    <g id="xtick_1">
     <g id="line2d_1">
      <path d="M 82.732515 307.584 
L 82.732515 41.472 
" clip-path="url(#p0be08ed878)" style="fill: none; stroke: #b0b0b0; stroke-width: 0.8; stroke-linecap: square"/>
     </g>
     <g id="line2d_2">
      <defs>
       <path id="mbdd3a8f750" d="M 0 0 
L 0 3.5 
" style="stroke: #000000; stroke-width: 0.8"/>
      </defs>
      <g>
       <use xlink:href="#mbdd3a8f750" x="82.732515" y="307.584" style="stroke: #000000; stroke-width: 0.8"/>
      </g>
     </g>
     <g id="text_1">
      <!-- −40 -->
      <g transform="translate(72.180171 322.182437)scale(0.1 -0.1)">
       <defs>
        <path id="DejaVuSans-2212" d="M 678 2272 
L 4684 2272 
L 4684 1741 
L 678 1741 
L 678 2272 
z
" transform="scale(0.015625)"/>
        <path id="DejaVuSans-34" d="M 2419 4116 
L 825 1625 
L 2419 1625 
L 2419 4116 
z
M 2253 4666 
L 3047 4666 
L 3047 1625 
L 3713 1625 
L 3713 1100 
L 3047 1100 
L 3047 0 
L 2419 0 
L 2419 1100 
L 313 1100 
L 313 1709 
L 2253 4666 
z
" transform="scale(0.015625)"/>
        <path id="DejaVuSans-30" d="M 2034 4250 
Q 1547 4250 1301 3770 
Q 1056 3291 1056 2328 
Q 1056 1369 1301 889 
Q 1547 409 2034 409 
Q 2525 409 2770 889 
Q 3016 1369 3016 2328 
Q 3016 3291 2770 3770 
Q 2525 4250 2034 4250 
z
M 2034 4750 
Q 2819 4750 3233 4129 
Q 3647 3509 3647 2328 
Q 3647 1150 3233 529 
Q 2819 -91 2034 -91 
Q 1250 -91 836 529 
Q 422 1150 422 2328 
Q 422 3509 836 4129 
Q 1250 4750 2034 4750 
z
" transform="scale(0.015625)"/>
       </defs>
       <use xlink:href="#DejaVuSans-2212"/>
       <use xlink:href="#DejaVuSans-34" x="83.789062"/>
       <use xlink:href="#DejaVuSans-30" x="147.412109"/>
      </g>
     </g>
    </g>
    <g id="xtick_2">
     <g id="line2d_3">
      <path d="M 159.534517 307.584 
L 159.534517 41.472 
" clip-path="url(#p0be08ed878)" style="fill: none; stroke: #b0b0b0; stroke-width: 0.8; stroke-linecap: square"/>
     </g>
     <g id="line2d_4">
      <g>
       <use xlink:href="#mbdd3a8f750" x="159.534517" y="307.584" style="stroke: #000000; stroke-width: 0.8"/>
      </g>
     </g>
     <g id="text_2">
      <!-- −20 -->
      <g transform="translate(148.982173 322.182437)scale(0.1 -0.1)">
       <defs>
        <path id="DejaVuSans-32" d="M 1228 531 
L 3431 531 
L 3431 0 
L 469 0 
L 469 531 
Q 828 903 1448 1529 
Q 2069 2156 2228 2338 
Q 2531 2678 2651 2914 
Q 2772 3150 2772 3378 
Q 2772 3750 2511 3984 
Q 2250 4219 1831 4219 
Q 1534 4219 1204 4116 
Q 875 4013 500 3803 
L 500 4441 
Q 881 4594 1212 4672 
Q 1544 4750 1819 4750 
Q 2544 4750 2975 4387 
Q 3406 4025 3406 3419 
Q 3406 3131 3298 2873 
Q 3191 2616 2906 2266 
Q 2828 2175 2409 1742 
Q 1991 1309 1228 531 
z
" transform="scale(0.015625)"/>
       </defs>
       <use xlink:href="#DejaVuSans-2212"/>
       <use xlink:href="#DejaVuSans-32" x="83.789062"/>
       <use xlink:href="#DejaVuSans-30" x="147.412109"/>
      </g>
     </g>
    </g>
    <g id="xtick_3">
     <g id="line2d_5">
      <path d="M 236.336518 307.584 
L 236.336518 41.472 
" clip-path="url(#p0be08ed878)" style="fill: none; stroke: #b0b0b0; stroke-width: 0.8; stroke-linecap: square"/>
     </g>
     <g id="line2d_6">
      <g>
       <use xlink:href="#mbdd3a8f750" x="236.336518" y="307.584" style="stroke: #000000; stroke-width: 0.8"/>
      </g>
     </g>
     <g id="text_3">
      <!-- 0 -->
      <g transform="translate(233.155268 322.182437)scale(0.1 -0.1)">
       <use xlink:href="#DejaVuSans-30"/>
      </g>
     </g>
    </g>
    <g id="xtick_4">
     <g id="line2d_7">
      <path d="M 313.13852 307.584 
L 313.13852 41.472 
" clip-path="url(#p0be08ed878)" style="fill: none; stroke: #b0b0b0; stroke-width: 0.8; stroke-linecap: square"/>
     </g>
     <g id="line2d_8">
      <g>
       <use xlink:href="#mbdd3a8f750" x="313.13852" y="307.584" style="stroke: #000000; stroke-width: 0.8"/>
      </g>
     </g>
     <g id="text_4">
      <!-- 20 -->
      <g transform="translate(306.77602 322.182437)scale(0.1 -0.1)">
       <use xlink:href="#DejaVuSans-32"/>
       <use xlink:href="#DejaVuSans-30" x="63.623047"/>
      </g>
     </g>
    </g>
    <g id="xtick_5">
     <g id="line2d_9">
      <path d="M 389.940522 307.584 
L 389.940522 41.472 
" clip-path="url(#p0be08ed878)" style="fill: none; stroke: #b0b0b0; stroke-width: 0.8; stroke-linecap: square"/>
     </g>
     <g id="line2d_10">
      <g>
       <use xlink:href="#mbdd3a8f750" x="389.940522" y="307.584" style="stroke: #000000; stroke-width: 0.8"/>
      </g>
     </g>
     <g id="text_5">
      <!-- 40 -->
      <g transform="translate(383.578022 322.182437)scale(0.1 -0.1)">
       <use xlink:href="#DejaVuSans-34"/>
       <use xlink:href="#DejaVuSans-30" x="63.623047"/>
      </g>
     </g>
    </g>
   </g>
   <g id="matplotlib.axis_2">
    <g id="ytick_1">
     <g id="line2d_11">
      <path d="M 57.6 290.228376 
L 414.72 290.228376 
" clip-path="url(#p0be08ed878)" style="fill: none; stroke: #b0b0b0; stroke-width: 0.8; stroke-linecap: square"/>
     </g>
     <g id="line2d_12">
      <defs>
       <path id="m6c4533fbaf" d="M 0 0 
L -3.5 0 
" style="stroke: #000000; stroke-width: 0.8"/>
      </defs>
      <g>
       <use xlink:href="#m6c4533fbaf" x="57.6" y="290.228376" style="stroke: #000000; stroke-width: 0.8"/>
      </g>
     </g>
     <g id="text_6">
      <!-- −15 -->
      <g transform="translate(29.495313 294.027595)scale(0.1 -0.1)">
       <defs>
        <path id="DejaVuSans-31" d="M 794 531 
L 1825 531 
L 1825 4091 
L 703 3866 
L 703 4441 
L 1819 4666 
L 2450 4666 
L 2450 531 
L 3481 531 
L 3481 0 
L 794 0 
L 794 531 
z
" transform="scale(0.015625)"/>
        <path id="DejaVuSans-35" d="M 691 4666 
L 3169 4666 
L 3169 4134 
L 1269 4134 
L 1269 2991 
Q 1406 3038 1543 3061 
Q 1681 3084 1819 3084 
Q 2600 3084 3056 2656 
Q 3513 2228 3513 1497 
Q 3513 744 3044 326 
Q 2575 -91 1722 -91 
Q 1428 -91 1123 -41 
Q 819 9 494 109 
L 494 744 
Q 775 591 1075 516 
Q 1375 441 1709 441 
Q 2250 441 2565 725 
Q 2881 1009 2881 1497 
Q 2881 1984 2565 2268 
Q 2250 2553 1709 2553 
Q 1456 2553 1204 2497 
Q 953 2441 691 2322 
L 691 4666 
z
" transform="scale(0.015625)"/>
       </defs>
       <use xlink:href="#DejaVuSans-2212"/>
       <use xlink:href="#DejaVuSans-31" x="83.789062"/>
       <use xlink:href="#DejaVuSans-35" x="147.412109"/>
      </g>
     </g>
    </g>
    <g id="ytick_2">
     <g id="line2d_13">
      <path d="M 57.6 247.599598 
L 414.72 247.599598 
" clip-path="url(#p0be08ed878)" style="fill: none; stroke: #b0b0b0; stroke-width: 0.8; stroke-linecap: square"/>
     </g>
     <g id="line2d_14">
      <g>
       <use xlink:href="#m6c4533fbaf" x="57.6" y="247.599598" style="stroke: #000000; stroke-width: 0.8"/>
      </g>
     </g>
     <g id="text_7">
      <!-- −10 -->
      <g transform="translate(29.495313 251.398817)scale(0.1 -0.1)">
       <use xlink:href="#DejaVuSans-2212"/>
       <use xlink:href="#DejaVuSans-31" x="83.789062"/>
       <use xlink:href="#DejaVuSans-30" x="147.412109"/>
      </g>
     </g>
    </g>
    <g id="ytick_3">
     <g id="line2d_15">
      <path d="M 57.6 204.97082 
L 414.72 204.97082 
" clip-path="url(#p0be08ed878)" style="fill: none; stroke: #b0b0b0; stroke-width: 0.8; stroke-linecap: square"/>
     </g>
     <g id="line2d_16">
      <g>
       <use xlink:href="#m6c4533fbaf" x="57.6" y="204.97082" style="stroke: #000000; stroke-width: 0.8"/>
      </g>
     </g>
     <g id="text_8">
      <!-- −5 -->
      <g transform="translate(35.857813 208.770038)scale(0.1 -0.1)">
       <use xlink:href="#DejaVuSans-2212"/>
       <use xlink:href="#DejaVuSans-35" x="83.789062"/>
      </g>
     </g>
    </g>
    <g id="ytick_4">
     <g id="line2d_17">
      <path d="M 57.6 162.342041 
L 414.72 162.342041 
" clip-path="url(#p0be08ed878)" style="fill: none; stroke: #b0b0b0; stroke-width: 0.8; stroke-linecap: square"/>
     </g>
     <g id="line2d_18">
      <g>
       <use xlink:href="#m6c4533fbaf" x="57.6" y="162.342041" style="stroke: #000000; stroke-width: 0.8"/>
      </g>
     </g>
     <g id="text_9">
      <!-- 0 -->
      <g transform="translate(44.2375 166.14126)scale(0.1 -0.1)">
       <use xlink:href="#DejaVuSans-30"/>
      </g>
     </g>
    </g>
    <g id="ytick_5">
     <g id="line2d_19">
      <path d="M 57.6 119.713263 
L 414.72 119.713263 
" clip-path="url(#p0be08ed878)" style="fill: none; stroke: #b0b0b0; stroke-width: 0.8; stroke-linecap: square"/>
     </g>
     <g id="line2d_20">
      <g>
       <use xlink:href="#m6c4533fbaf" x="57.6" y="119.713263" style="stroke: #000000; stroke-width: 0.8"/>
      </g>
     </g>
     <g id="text_10">
      <!-- 5 -->
      <g transform="translate(44.2375 123.512482)scale(0.1 -0.1)">
       <use xlink:href="#DejaVuSans-35"/>
      </g>
     </g>
    </g>
    <g id="ytick_6">
     <g id="line2d_21">
      <path d="M 57.6 77.084485 
L 414.72 77.084485 
" clip-path="url(#p0be08ed878)" style="fill: none; stroke: #b0b0b0; stroke-width: 0.8; stroke-linecap: square"/>
     </g>
     <g id="line2d_22">
      <g>
       <use xlink:href="#m6c4533fbaf" x="57.6" y="77.084485" style="stroke: #000000; stroke-width: 0.8"/>
      </g>
     </g>
     <g id="text_11">
      <!-- 10 -->
      <g transform="translate(37.875 80.883703)scale(0.1 -0.1)">
       <use xlink:href="#DejaVuSans-31"/>
       <use xlink:href="#DejaVuSans-30" x="63.623047"/>
      </g>
     </g>
    </g>
   </g>
   <g id="patch_3">
    <path d="M 57.6 307.584 
L 57.6 41.472 
" style="fill: none; stroke: #000000; stroke-width: 0.8; stroke-linejoin: miter; stroke-linecap: square"/>
   </g>
   <g id="patch_4">
    <path d="M 414.72 307.584 
L 414.72 41.472 
" style="fill: none; stroke: #000000; stroke-width: 0.8; stroke-linejoin: miter; stroke-linecap: square"/>
   </g>
   <g id="patch_5">
    <path d="M 57.6 307.584 
L 414.72 307.584 
" style="fill: none; stroke: #000000; stroke-width: 0.8; stroke-linejoin: miter; stroke-linecap: square"/>
   </g>
   <g id="patch_6">
    <path d="M 57.6 41.472 
L 414.72 41.472 
" style="fill: none; stroke: #000000; stroke-width: 0.8; stroke-linejoin: miter; stroke-linecap: square"/>
   </g>
   <g id="text_12">
    <!-- Chicken -->
    <g transform="translate(212.450625 35.472)scale(0.12 -0.12)">
     <defs>
      <path id="DejaVuSans-43" d="M 4122 4306 
L 4122 3641 
Q 3803 3938 3442 4084 
Q 3081 4231 2675 4231 
Q 1875 4231 1450 3742 
Q 1025 3253 1025 2328 
Q 1025 1406 1450 917 
Q 1875 428 2675 428 
Q 3081 428 3442 575 
Q 3803 722 4122 1019 
L 4122 359 
Q 3791 134 3420 21 
Q 3050 -91 2638 -91 
Q 1578 -91 968 557 
Q 359 1206 359 2328 
Q 359 3453 968 4101 
Q 1578 4750 2638 4750 
Q 3056 4750 3426 4639 
Q 3797 4528 4122 4306 
z
" transform="scale(0.015625)"/>
      <path id="DejaVuSans-68" d="M 3513 2113 
L 3513 0 
L 2938 0 
L 2938 2094 
Q 2938 2591 2744 2837 
Q 2550 3084 2163 3084 
Q 1697 3084 1428 2787 
Q 1159 2491 1159 1978 
L 1159 0 
L 581 0 
L 581 4863 
L 1159 4863 
L 1159 2956 
Q 1366 3272 1645 3428 
Q 1925 3584 2291 3584 
Q 2894 3584 3203 3211 
Q 3513 2838 3513 2113 
z
" transform="scale(0.015625)"/>
      <path id="DejaVuSans-69" d="M 603 3500 
L 1178 3500 
L 1178 0 
L 603 0 
L 603 3500 
z
M 603 4863 
L 1178 4863 
L 1178 4134 
L 603 4134 
L 603 4863 
z
" transform="scale(0.015625)"/>
      <path id="DejaVuSans-63" d="M 3122 3366 
L 3122 2828 
Q 2878 2963 2633 3030 
Q 2388 3097 2138 3097 
Q 1578 3097 1268 2742 
Q 959 2388 959 1747 
Q 959 1106 1268 751 
Q 1578 397 2138 397 
Q 2388 397 2633 464 
Q 2878 531 3122 666 
L 3122 134 
Q 2881 22 2623 -34 
Q 2366 -91 2075 -91 
Q 1284 -91 818 406 
Q 353 903 353 1747 
Q 353 2603 823 3093 
Q 1294 3584 2113 3584 
Q 2378 3584 2631 3529 
Q 2884 3475 3122 3366 
z
" transform="scale(0.015625)"/>
      <path id="DejaVuSans-6b" d="M 581 4863 
L 1159 4863 
L 1159 1991 
L 2875 3500 
L 3609 3500 
L 1753 1863 
L 3688 0 
L 2938 0 
L 1159 1709 
L 1159 0 
L 581 0 
L 581 4863 
z
" transform="scale(0.015625)"/>
      <path id="DejaVuSans-65" d="M 3597 1894 
L 3597 1613 
L 953 1613 
Q 991 1019 1311 708 
Q 1631 397 2203 397 
Q 2534 397 2845 478 
Q 3156 559 3463 722 
L 3463 178 
Q 3153 47 2828 -22 
Q 2503 -91 2169 -91 
Q 1331 -91 842 396 
Q 353 884 353 1716 
Q 353 2575 817 3079 
Q 1281 3584 2069 3584 
Q 2775 3584 3186 3129 
Q 3597 2675 3597 1894 
z
M 3022 2063 
Q 3016 2534 2758 2815 
Q 2500 3097 2075 3097 
Q 1594 3097 1305 2825 
Q 1016 2553 972 2059 
L 3022 2063 
z
" transform="scale(0.015625)"/>
      <path id="DejaVuSans-6e" d="M 3513 2113 
L 3513 0 
L 2938 0 
L 2938 2094 
Q 2938 2591 2744 2837 
Q 2550 3084 2163 3084 
Q 1697 3084 1428 2787 
Q 1159 2491 1159 1978 
L 1159 0 
L 581 0 
L 581 3500 
L 1159 3500 
L 1159 2956 
Q 1366 3272 1645 3428 
Q 1925 3584 2291 3584 
Q 2894 3584 3203 3211 
Q 3513 2838 3513 2113 
z
" transform="scale(0.015625)"/>
     </defs>
     <use xlink:href="#DejaVuSans-43"/>
     <use xlink:href="#DejaVuSans-68" x="69.824219"/>
     <use xlink:href="#DejaVuSans-69" x="133.203125"/>
     <use xlink:href="#DejaVuSans-63" x="160.986328"/>
     <use xlink:href="#DejaVuSans-6b" x="215.966797"/>
     <use xlink:href="#DejaVuSans-65" x="270.251953"/>
     <use xlink:href="#DejaVuSans-6e" x="331.775391"/>
    </g>
   </g>
   <g id="legend_1">
    <g id="patch_7">
     <path d="M 328.97625 93.506375 
L 407.72 93.506375 
Q 409.72 93.506375 409.72 91.506375 
L 409.72 48.472 
Q 409.72 46.472 407.72 46.472 
L 328.97625 46.472 
Q 326.97625 46.472 326.97625 48.472 
L 326.97625 91.506375 
Q 326.97625 93.506375 328.97625 93.506375 
z
" style="fill: #ffffff; opacity: 0.8; stroke: #cccccc; stroke-linejoin: miter"/>
    </g>
    <g id="PathCollection_4">
     <g>
      <use xlink:href="#m3c9ac0d32b" x="340.97625" y="55.445438" style="fill: #0000ff; fill-opacity: 0.3; stroke: #0000ff; stroke-opacity: 0.3"/>
     </g>
    </g>
    <g id="text_13">
     <!-- Paris -->
     <g transform="translate(358.97625 58.070438)scale(0.1 -0.1)">
      <defs>
       <path id="DejaVuSans-50" d="M 1259 4147 
L 1259 2394 
L 2053 2394 
Q 2494 2394 2734 2622 
Q 2975 2850 2975 3272 
Q 2975 3691 2734 3919 
Q 2494 4147 2053 4147 
L 1259 4147 
z
M 628 4666 
L 2053 4666 
Q 2838 4666 3239 4311 
Q 3641 3956 3641 3272 
Q 3641 2581 3239 2228 
Q 2838 1875 2053 1875 
L 1259 1875 
L 1259 0 
L 628 0 
L 628 4666 
z
" transform="scale(0.015625)"/>
       <path id="DejaVuSans-61" d="M 2194 1759 
Q 1497 1759 1228 1600 
Q 959 1441 959 1056 
Q 959 750 1161 570 
Q 1363 391 1709 391 
Q 2188 391 2477 730 
Q 2766 1069 2766 1631 
L 2766 1759 
L 2194 1759 
z
M 3341 1997 
L 3341 0 
L 2766 0 
L 2766 531 
Q 2569 213 2275 61 
Q 1981 -91 1556 -91 
Q 1019 -91 701 211 
Q 384 513 384 1019 
Q 384 1609 779 1909 
Q 1175 2209 1959 2209 
L 2766 2209 
L 2766 2266 
Q 2766 2663 2505 2880 
Q 2244 3097 1772 3097 
Q 1472 3097 1187 3025 
Q 903 2953 641 2809 
L 641 3341 
Q 956 3463 1253 3523 
Q 1550 3584 1831 3584 
Q 2591 3584 2966 3190 
Q 3341 2797 3341 1997 
z
" transform="scale(0.015625)"/>
       <path id="DejaVuSans-72" d="M 2631 2963 
Q 2534 3019 2420 3045 
Q 2306 3072 2169 3072 
Q 1681 3072 1420 2755 
Q 1159 2438 1159 1844 
L 1159 0 
L 581 0 
L 581 3500 
L 1159 3500 
L 1159 2956 
Q 1341 3275 1631 3429 
Q 1922 3584 2338 3584 
Q 2397 3584 2469 3576 
Q 2541 3569 2628 3553 
L 2631 2963 
z
" transform="scale(0.015625)"/>
       <path id="DejaVuSans-73" d="M 2834 3397 
L 2834 2853 
Q 2591 2978 2328 3040 
Q 2066 3103 1784 3103 
Q 1356 3103 1142 2972 
Q 928 2841 928 2578 
Q 928 2378 1081 2264 
Q 1234 2150 1697 2047 
L 1894 2003 
Q 2506 1872 2764 1633 
Q 3022 1394 3022 966 
Q 3022 478 2636 193 
Q 2250 -91 1575 -91 
Q 1294 -91 989 -36 
Q 684 19 347 128 
L 347 722 
Q 666 556 975 473 
Q 1284 391 1588 391 
Q 1994 391 2212 530 
Q 2431 669 2431 922 
Q 2431 1156 2273 1281 
Q 2116 1406 1581 1522 
L 1381 1569 
Q 847 1681 609 1914 
Q 372 2147 372 2553 
Q 372 3047 722 3315 
Q 1072 3584 1716 3584 
Q 2034 3584 2315 3537 
Q 2597 3491 2834 3397 
z
" transform="scale(0.015625)"/>
      </defs>
      <use xlink:href="#DejaVuSans-50"/>
      <use xlink:href="#DejaVuSans-61" x="55.802734"/>
      <use xlink:href="#DejaVuSans-72" x="117.082031"/>
      <use xlink:href="#DejaVuSans-69" x="158.195312"/>
      <use xlink:href="#DejaVuSans-73" x="185.978516"/>
     </g>
    </g>
    <g id="PathCollection_5">
     <g>
      <use xlink:href="#m9357756b08" x="340.97625" y="70.123563" style="fill: #bfbf00; fill-opacity: 0.3; stroke: #bfbf00; stroke-opacity: 0.3"/>
     </g>
    </g>
    <g id="text_14">
     <!-- Shanghai -->
     <g transform="translate(358.97625 72.748563)scale(0.1 -0.1)">
      <defs>
       <path id="DejaVuSans-53" d="M 3425 4513 
L 3425 3897 
Q 3066 4069 2747 4153 
Q 2428 4238 2131 4238 
Q 1616 4238 1336 4038 
Q 1056 3838 1056 3469 
Q 1056 3159 1242 3001 
Q 1428 2844 1947 2747 
L 2328 2669 
Q 3034 2534 3370 2195 
Q 3706 1856 3706 1288 
Q 3706 609 3251 259 
Q 2797 -91 1919 -91 
Q 1588 -91 1214 -16 
Q 841 59 441 206 
L 441 856 
Q 825 641 1194 531 
Q 1563 422 1919 422 
Q 2459 422 2753 634 
Q 3047 847 3047 1241 
Q 3047 1584 2836 1778 
Q 2625 1972 2144 2069 
L 1759 2144 
Q 1053 2284 737 2584 
Q 422 2884 422 3419 
Q 422 4038 858 4394 
Q 1294 4750 2059 4750 
Q 2388 4750 2728 4690 
Q 3069 4631 3425 4513 
z
" transform="scale(0.015625)"/>
       <path id="DejaVuSans-67" d="M 2906 1791 
Q 2906 2416 2648 2759 
Q 2391 3103 1925 3103 
Q 1463 3103 1205 2759 
Q 947 2416 947 1791 
Q 947 1169 1205 825 
Q 1463 481 1925 481 
Q 2391 481 2648 825 
Q 2906 1169 2906 1791 
z
M 3481 434 
Q 3481 -459 3084 -895 
Q 2688 -1331 1869 -1331 
Q 1566 -1331 1297 -1286 
Q 1028 -1241 775 -1147 
L 775 -588 
Q 1028 -725 1275 -790 
Q 1522 -856 1778 -856 
Q 2344 -856 2625 -561 
Q 2906 -266 2906 331 
L 2906 616 
Q 2728 306 2450 153 
Q 2172 0 1784 0 
Q 1141 0 747 490 
Q 353 981 353 1791 
Q 353 2603 747 3093 
Q 1141 3584 1784 3584 
Q 2172 3584 2450 3431 
Q 2728 3278 2906 2969 
L 2906 3500 
L 3481 3500 
L 3481 434 
z
" transform="scale(0.015625)"/>
      </defs>
      <use xlink:href="#DejaVuSans-53"/>
      <use xlink:href="#DejaVuSans-68" x="63.476562"/>
      <use xlink:href="#DejaVuSans-61" x="126.855469"/>
      <use xlink:href="#DejaVuSans-6e" x="188.134766"/>
      <use xlink:href="#DejaVuSans-67" x="251.513672"/>
      <use xlink:href="#DejaVuSans-68" x="314.990234"/>
      <use xlink:href="#DejaVuSans-61" x="378.369141"/>
      <use xlink:href="#DejaVuSans-69" x="439.648438"/>
     </g>
    </g>
    <g id="PathCollection_6">
     <g>
      <use xlink:href="#m07e045b19c" x="340.97625" y="84.801688" style="fill: #ff0000; fill-opacity: 0.3; stroke: #ff0000; stroke-opacity: 0.3"/>
     </g>
    </g>
    <g id="text_15">
     <!-- Nanyang -->
     <g transform="translate(358.97625 87.426688)scale(0.1 -0.1)">
      <defs>
       <path id="DejaVuSans-4e" d="M 628 4666 
L 1478 4666 
L 3547 763 
L 3547 4666 
L 4159 4666 
L 4159 0 
L 3309 0 
L 1241 3903 
L 1241 0 
L 628 0 
L 628 4666 
z
" transform="scale(0.015625)"/>
       <path id="DejaVuSans-79" d="M 2059 -325 
Q 1816 -950 1584 -1140 
Q 1353 -1331 966 -1331 
L 506 -1331 
L 506 -850 
L 844 -850 
Q 1081 -850 1212 -737 
Q 1344 -625 1503 -206 
L 1606 56 
L 191 3500 
L 800 3500 
L 1894 763 
L 2988 3500 
L 3597 3500 
L 2059 -325 
z
" transform="scale(0.015625)"/>
      </defs>
      <use xlink:href="#DejaVuSans-4e"/>
      <use xlink:href="#DejaVuSans-61" x="74.804688"/>
      <use xlink:href="#DejaVuSans-6e" x="136.083984"/>
      <use xlink:href="#DejaVuSans-79" x="199.462891"/>
      <use xlink:href="#DejaVuSans-61" x="258.642578"/>
      <use xlink:href="#DejaVuSans-6e" x="319.921875"/>
      <use xlink:href="#DejaVuSans-67" x="383.300781"/>
     </g>
    </g>
   </g>
  </g>
 </g>
 <defs>
  <clipPath id="p0be08ed878">
   <rect x="57.6" y="41.472" width="357.12" height="266.112"/>
  </clipPath>
 </defs>
</svg>
